<svg width="70" height="55" viewBox="0 0 70 55" fill="none" xmlns="http://www.w3.org/2000/svg">
  <path d="M50.1136 8.8C56.5409 14.5619 56.5409 22.55 50.1136 27.8405L44.7681 23.4143C47.4409 20.3238 47.4409 16.3167 44.7681 13.2262L50.1136 8.8ZM60.6454 0C73.1818 10.6071 73.0545 26.4786 60.6454 36.6667L55.459 32.3976C64.2727 24.069 64.2727 12.1786 55.459 4.26905L60.6454 0ZM39.3272 33.419C45.5318 35.1476 50.909 37.9762 50.909 41.9048V55H0V41.9048C0 37.9762 5.37727 35.1476 11.6136 33.419L13.5864 36.6667L14.3182 37.9762C9.54545 39.181 6.04545 40.9095 6.04545 41.9048V50.0238H19.4727L22.2727 36.7452L19.2818 31.8214C21.2545 31.6381 23.3227 31.5071 25.4545 31.5071C27.5863 31.5071 29.6545 31.6381 31.6272 31.8214L28.6363 36.7452L31.4363 50.0238H44.8636V41.9048C44.8636 40.9095 41.3636 39.181 36.5909 37.9762L37.3227 36.6667L39.3272 33.419ZM25.4545 13.0952C21.9545 13.0952 19.0909 15.4524 19.0909 18.3333C19.0909 21.2143 21.9545 23.5714 25.4545 23.5714C28.9545 23.5714 31.8182 21.2143 31.8182 18.3333C31.8182 15.4524 28.9545 13.0952 25.4545 13.0952ZM25.4545 28.8095C18.4227 28.8095 12.7273 24.1214 12.7273 18.3333C12.7273 12.5452 18.4227 7.85714 25.4545 7.85714C32.4863 7.85714 38.1818 12.5452 38.1818 18.3333C38.1818 24.1214 32.4863 28.8095 25.4545 28.8095Z" fill="#5E5E5E"/>
  </svg>
  