<svg width="70" height="55" viewBox="0 0 70 55" fill="none" xmlns="http://www.w3.org/2000/svg">
<path d="M64.9744 28.3333L70 33.0333L46.559 55L34.1026 43.3333L39.1282 38.6333L46.559 45.5667L64.9744 28.3333ZM28.7179 0C32.5262 0 36.1785 1.40476 38.8713 3.90524C41.5641 6.40573 43.0769 9.79711 43.0769 13.3333C43.0769 16.8696 41.5641 20.2609 38.8713 22.7614C36.1785 25.2619 32.5262 26.6667 28.7179 26.6667C24.9097 26.6667 21.2575 25.2619 18.5646 22.7614C15.8718 20.2609 14.359 16.8696 14.359 13.3333C14.359 9.79711 15.8718 6.40573 18.5646 3.90524C21.2575 1.40476 24.9097 0 28.7179 0ZM28.7179 6.66667C26.8138 6.66667 24.9877 7.36905 23.6413 8.61929C22.2949 9.86953 21.5385 11.5652 21.5385 13.3333C21.5385 15.1014 22.2949 16.7971 23.6413 18.0474C24.9877 19.2976 26.8138 20 28.7179 20C30.6221 20 32.4482 19.2976 33.7946 18.0474C35.141 16.7971 35.8974 15.1014 35.8974 13.3333C35.8974 11.5652 35.141 9.86953 33.7946 8.61929C32.4482 7.36905 30.6221 6.66667 28.7179 6.66667ZM28.7179 30C31.159 30 34.1026 30.3 37.3692 30.8667L31.3744 36.4333L28.7179 36.3333C18.0564 36.3333 6.82051 41.2 6.82051 43.3333V47H29.0769L35.8974 53.3333H0V43.3333C0 34.4667 19.1333 30 28.7179 30Z" fill="#5E5E5E"/>
</svg>
